<svg version="1.1" id="Capa_1" x="0px" y="0px" width="225.255px" height="225.255px" viewBox="0 0 225.255 225.255" style="enable-background:new 0 0 225.255 225.255;" xmlns="http://www.w3.org/2000/svg">
  <path style="fill: rgb(125, 162, 183);" d="M 153.865 104.336 C 152.669 110.348 145.913 116.289 146.422 126.307 C 146.422 126.307 120.488 111.037 130.728 92.053 C 137.362 97.715 145.225 101.941 153.865 104.336 Z" transform="matrix(0.998661, 0.051738, -0.051738, 0.998661, 5.762945, -7.154063)"></path>
  <path style="fill: rgb(125, 162, 183);" d="M 186.618 48.596 C 184.829 42.075 181.183 36.309 175.433 31.282 C 183.904 30.622 198.13 30.874 210.479 36.999 C 210.479 36.999 199.98 48.555 186.618 48.596 Z" transform="matrix(0.937764, 0.347273, -0.347273, 0.937764, 25.835038, -64.530563)"></path>
  <path style="fill: none; stroke-width: 2px; stroke: rgb(120, 144, 156);" d="M 31.225 107.492 C 39.414 108.78 41.518 107.002 44.747 106.35 C 58.307 103.611 63.179 116.553 61.693 127.874 C 60.98 133.301 58.298 144.205 66.486 145.32 C 71.098 145.947 77.425 141.672 79.837 138.797 C 82.038 136.173 84.196 130.317 86.977 126.242 C 92.149 118.665 100.527 106.212 112.114 111.731 C 116.155 113.656 118.84 121.511 119.377 125.264 C 120.871 135.7 120.575 146.56 120.575 157.059"></path>
  <g transform="matrix(0.995357, -0.096255, 0.096255, 0.995357, -8.145993, 14.285201)">
    <rect x="90.647" y="139.475" width="51.054" height="74.299" style="fill: rgb(207, 216, 220);" rx="28.2" ry="28.2"></rect>
    <path d="M 141.701 167.985 L 141.701 168.491 L 116.81 168.491 C 116.833 167.989 116.845 167.453 116.845 166.895 L 116.845 141.382 C 116.845 140.827 116.833 140.293 116.811 139.794 C 130.615 140.167 141.701 152.646 141.701 167.985 Z M 90.647 168.491 L 90.647 167.985 C 90.647 152.646 101.733 140.167 115.537 139.794 C 115.515 140.293 115.503 140.827 115.503 141.382 L 115.503 166.895 C 115.503 167.453 115.515 167.989 115.538 168.491 Z" style="fill: rgb(176, 190, 197);"></path>
    <rect x="112.352" y="143.132" width="7.645" height="21.132" style="fill: rgb(144, 164, 174);" rx="5.066" ry="5.066"></rect>
  </g>
  <path d="M 110.17 0.008 C 52.789 -0.708 -1.841 35.806 24.492 85.149 C 33.893 102.76 76.881 102.105 90.535 98.168 C 96.895 96.33 103.421 94.622 110.431 94.708 C 142.515 95.106 168.198 121.454 167.807 153.537 C 167.405 185.627 141.067 211.309 108.977 210.913 C 76.888 210.517 51.206 184.179 51.604 152.084 C 51.651 148.146 52.112 144.305 52.904 140.599 C 41.133 148.863 39.117 168.026 39.117 168.026 C 30.836 161.418 16.65 156.128 3.865 153.503 C 20.052 194.985 60.088 224.657 107.354 225.248 C 169.55 226.022 220.601 176.235 221.381 114.046 C 222.15 51.842 172.358 0.789 110.17 0.008 Z" style="fill: rgb(105, 139, 158);"></path>
  <path d="M 33.1 80.499 L 38.864 80.499 C 38.065 75.547 34.438 71.713 30.129 71.713 C 25.218 71.713 21.23 76.575 21.23 82.501 L 21.23 102.149 C 21.704 102.703 17.441 102.703 17.915 102.149 L 17.915 82.501 C 17.915 74.457 23.397 67.915 30.061 67.915 C 36.647 67.915 42.107 74.448 42.185 82.486 C 42.185 82.55 42.224 89.899 42.224 89.972 L 42.224 95.959 L 33.1 80.499 Z" style="fill: rgb(84, 110, 122);" transform="matrix(0.275248, -0.961373, 0.961373, 0.275248, -70.876992, 98.17367)"></path>
</svg>