<svg viewBox="0 0 96 96" xmlns="http://www.w3.org/2000/svg" xmlns:xlink="http://www.w3.org/1999/xlink" id="Icons_Kiosk" overflow="hidden"><path d="M84 29 84 25.68C84.0013 25.2326 83.9093 24.7899 83.73 24.38L77.85 11 18.15 11 12.27 24.38C12.0907 24.7899 11.9987 25.2326 12 25.68L12 29C12 31.2091 13.7909 33 16 33L16 57 12 57 12 63 16 63 16 84 80 84 80 63 84 63 84 57 80 57 80 33C82.2091 33 84 31.2091 84 29ZM72.2 17 76 25 76 29C76 31.2091 74.2091 33 72 33 69.7909 33 68 31.2091 68 29L68 25 64.2 17ZM57.6 17 60 25 60 29C60 31.2091 58.2091 33 56 33 53.7909 33 52 31.2091 52 29L52 25 50.6 17ZM36 25 38.4 17 45.4 17 44 25 44 29C44 31.2091 42.2091 33 40 33 37.7909 33 36 31.2091 36 29ZM20 25 23.8 17 31.8 17 28 25 28 29C28 31.2091 26.2091 33 24 33 21.7909 33 20 31.2091 20 29ZM22 57 22 40 74 40 74 57Z"/></svg>